<svg width="78" height="78" viewBox="0 0 78 78" fill="none" xmlns="http://www.w3.org/2000/svg">
<path d="M49.8779 33.3944C48.9735 33.1527 48.0538 32.9718 47.1251 32.8528C46.7031 32.7893 46.2813 32.7258 45.8623 32.6506L45.845 32.6475H45.8278C39.7181 32.751 34.9554 36.9043 34.2494 42.7506C33.642 47.7678 35.7864 51.568 40.1326 53.1766C42.1245 53.935 44.2365 54.3315 46.3686 54.3478C47.1132 54.3485 47.8569 54.2956 48.594 54.1897C51.4076 53.7855 53.5409 52.4215 54.9349 50.1359C55.7188 48.8681 56.3244 47.4991 56.7354 46.0672C58.2866 40.4373 55.3386 34.989 49.8779 33.3944Z" fill="#00CEB3"/>
<path d="M46.6636 29.1087C45.7592 28.8671 44.8396 28.6862 43.9109 28.5672C43.4888 28.5037 43.0671 28.4402 42.6481 28.3649L42.6308 28.3618H42.6135C36.5038 28.4654 31.7411 32.6187 31.0351 38.4649C30.4278 43.4822 32.5721 47.2823 36.9183 48.891C38.9102 49.6493 41.0222 50.0459 43.1543 50.0621C43.899 50.0628 44.6427 50.01 45.3797 49.904C48.1934 49.4999 50.3266 48.1359 51.7206 45.8503C52.5046 44.5824 53.1102 43.2134 53.5212 41.7816C55.0724 36.1517 52.1244 30.7034 46.6636 29.1087ZM48.8291 44.9125C47.488 46.7135 45.5358 47.5495 42.8645 47.4643C42.4836 47.4076 42.0982 47.3572 41.7142 47.3065C40.8891 47.1978 40.036 47.0856 39.2136 46.9123C35.3539 46.0992 33.8297 43.9785 33.953 39.5925C34.026 36.99 34.999 34.8246 36.7663 33.33C38.7746 31.6318 41.7371 30.8583 44.6924 31.2615C48.1771 31.7368 50.4592 34.3416 50.7979 38.2299C51.008 40.6249 50.3052 43.011 48.8291 44.9125Z" fill="black"/>
<path d="M5.83802 27.7225C6.42379 27.9139 7.00919 28.1543 7.60745 28.3089C12.6747 29.5803 17.7421 30.8273 22.8093 32.0988C23.3344 32.2295 23.8587 32.458 24.3091 32.7605C24.5282 32.9057 24.7205 33.3691 24.6331 33.6022C24.5579 33.8474 24.1648 34.0705 23.8707 34.1461C23.5521 34.2218 23.1856 34.1511 22.8559 34.0679C17.5685 32.7981 12.2932 31.5404 7.04293 30.2091C6.44467 30.0545 5.96021 29.3975 5.42501 28.9856L5.83802 27.7225Z" fill="#00CEB3"/>
<path d="M9.34374 58.7862C9.57862 58.4769 9.73898 58.0436 10.0608 57.8706C14.4421 55.4248 18.8233 52.9541 23.2791 50.6322C24.0836 50.1999 25.2111 50.3874 26.1772 50.2898C25.4474 50.97 24.8045 51.8113 23.963 52.3055C20.4111 54.3934 16.8467 56.4442 13.2079 58.3958C12.1311 58.9763 10.868 59.1973 9.6918 59.5795C9.57992 59.3192 9.45567 59.0713 9.34378 58.811L9.34374 58.7862Z" fill="#00CEB3"/>
<path d="M64.2736 14.7606C63.9926 15.3089 63.8088 15.9056 63.4426 16.3932C60.9041 19.8062 58.3656 23.2193 55.742 26.5716C55.3637 27.0471 54.5966 27.2068 53.9996 27.5123C54.0618 26.8915 53.9052 26.1007 54.2346 25.6741C56.8586 22.1513 59.5554 18.7014 62.2644 15.2637C62.6061 14.8249 63.2029 14.6167 63.6782 14.2872C63.8726 14.4572 64.067 14.6028 64.2614 14.7728L64.2736 14.7606Z" fill="#00CEB3"/>
<path d="M31.186 6.00003C32.442 11.7644 34.6006 16.8212 35.537 22.6127C32.8701 21.1844 29.3382 8.14035 31.186 6.00003Z" fill="#00CEB3"/>
</svg>
